<?xml version="1.0" encoding="UTF-8"?>
<svg id="Layer_1" xmlns="http://www.w3.org/2000/svg" baseProfile="tiny" version="1.2" viewBox="0 0 32 32">
  <!-- Generator: Adobe Illustrator 29.5.0, SVG Export Plug-In . SVG Version: 2.1.0 Build 137)  -->
  <path d="M14.16,5.2c2.64,0,4.7.88,5.63,1.46.3.19.43.55.31.88-.15.43-.29,1.02-.19,1.4.12.47.4.86.95,1.23.17.11.26.3.25.5-.05.66.1,1.22.45,1.74.27.4.67.81,1.18.95.19.05.33.22.36.41.05.4.24,1.08.87,1.69.53.51,1.12.79,1.55.94.39.13.63.52.58.93-.15,1.4-.78,4.46-3.3,7.1-1.86,1.95-4.45,3.5-8.22,3.5-2.67,0-5.57-1.06-7.81-3.3-1.97-1.96-3.49-4.75-3.49-8.24,0-4.67,3.47-10.9,10.88-11.2Z" fill="#935f2c"/>
  <path d="M24.88,17.51c-.16,1.29-.76,3.91-2.99,6.24-1.71,1.79-4.15,3.25-7.61,3.25-.68,0-1.38-.07-2.09-.22,0,0,0,0,0,0-1.85-.39-3.71-1.31-5.2-2.79-1.81-1.8-3.08-4.37-3.08-7.58,0-2.22.85-4.93,2.65-7.03,1.69-1.96,4.22-3.4,7.5-3.53,2.45,0,3.85.54,4.45.83.17.08.25.28.19.46,0,0,0,0,0,.01-.67,1.69.07,2.83,1.03,3.35.16.09.25.27.23.45-.16,1.35.7,2.43,1.68,2.73.28.09.47.34.5.63.11,1.21,1.24,2.09,2.15,2.32.39.1.64.47.6.86Z" fill="#fde6b6"/>
  <path d="M18.69,7.15c-1.03-.46-2.71-.96-4.57-.96-3.19.13-5.65,1.55-7.29,3.48-1.75,2.07-2.58,4.74-2.58,6.93,0,3.16,1.33,5.64,3.08,7.42,1.41,1.42,3.11,2.34,4.83,2.76-1.85-.39-3.71-1.31-5.2-2.79-1.81-1.8-3.08-4.37-3.08-7.58,0-2.22.85-4.93,2.65-7.03,1.69-1.96,4.22-3.4,7.5-3.53,2.45,0,3.85.54,4.45.83.17.08.25.28.19.46Z" fill="#feefd3"/>
  <path d="M14.5,25.57c-1.22,0-2.41-.24-3.53-.72-1.08-.46-2.05-1.11-2.88-1.95-.83-.84-1.49-1.81-1.94-2.89-.47-1.12-.71-2.31-.71-3.54s.24-2.42.71-3.54c.46-1.08,1.11-2.06,1.94-2.89.83-.84,1.8-1.49,2.88-1.95,1.12-.47,2.31-.72,3.53-.72,1.12,0,2.24.26,3.34.77.09.04.12.14.08.23-.04.09-.14.12-.23.08-1.05-.49-2.13-.74-3.2-.74-4.81,0-8.73,3.93-8.73,8.76s3.91,8.76,8.73,8.76c2.47,0,4.78-1.08,6.49-3.04,1.24-1.41,1.99-3.08,2.18-4.82.01-.09.09-.16.19-.15.09.01.16.09.15.19-.2,1.81-.98,3.54-2.27,5-.85.97-1.86,1.74-2.98,2.29-1.19.57-2.46.87-3.77.87Z" fill="#ce9c60"/>
  <g>
    <path d="M18.97,15.04c.3-1.31-.48-2.53-2.54-3.11-.06-.02-.09-.07-.08-.13l.32-1.53c.03-.15-.06-.3-.21-.33l-.68-.15c-.15-.03-.3.06-.33.21l-.36,1.5c-.01.06-.07.1-.13.08-.19-.04-.37-.09-.56-.13-.06-.01-.1-.07-.08-.13l.31-1.5c.03-.15-.06-.3-.21-.33l-.75-.17c-.15-.03-.3.06-.33.21l-.36,1.49c-.01.06-.07.1-.13.08-.82-.18-1.53-.34-1.94-.43-.21-.05-.43.09-.48.3l-.21.89c-.02.09.03.18.12.2l1.02.24c.25.06.41.31.35.56l-1.28,5.76c-.03.14-.17.22-.3.19l-.91-.22c-.15-.04-.3.05-.35.19l-.34.96c-.07.19.05.39.24.43l2.02.43c.1.02.17.12.14.22l-.33,1.39c-.04.15.06.3.21.34l.74.17c.15.03.3-.06.33-.21l.31-1.42c.02-.1.12-.16.22-.14l.23.05s.07.02.2.04c.1.02.16.12.14.22l-.31,1.45c-.03.15.06.3.21.33l.68.15c.15.03.3-.06.33-.22l.31-1.48c.02-.1.12-.16.21-.14.41.08.8.14,1.02.15.68.04,2.52.06,3.26-1.8.52-1.31.05-2.57-1.31-3.07,0,0,1.29-.24,1.61-1.61ZM16.29,18.77c-.37,1.21-1.76,1.07-2.19,1-.32-.05-1.09-.22-1.48-.31-.12-.03-.2-.15-.17-.27l.52-2.35c.03-.12.15-.2.27-.17.49.12,1.23.3,1.4.33.27.06,2.01.55,1.64,1.76ZM16.53,14.67c-.08.5-.42.83-.84,1.01-.41.17-1.23.05-1.85-.08-.14-.03-.25-.05-.35-.07-.12-.03-.2-.14-.17-.26l.49-2.19c.03-.12.14-.19.26-.17.23.05.51.11.82.18,1.48.32,1.72,1.09,1.64,1.59Z" fill="#935f2c"/>
    <g>
      <path d="M18.86,18.33c-.21-.6-.66-1.09-1.36-1.35,0,0-.19-.14-.13-.34.86.32,1.37.94,1.49,1.68Z" fill="#a36c36"/>
      <path d="M12.97,21.19c.16.04.26.21.22.37l-.32,1.49h-.01c-.15-.03-.25-.18-.21-.33l.31-1.45s0-.05,0-.07h0Z" fill="#a36c36"/>
      <path d="M11.15,21.16l-.31,1.41h-.05c-.15-.05-.25-.2-.21-.35l.33-1.39s0-.01,0-.02h0c.16.03.26.19.23.35Z" fill="#a36c36"/>
      <path d="M11.92,13.32l-1.23,5.61c-.05.21-.25.34-.46.29l-.76-.19c-.14-.04-.29.05-.34.19l-.33.96h-.04c-.19-.05-.31-.25-.24-.44l.34-.96c.05-.14.2-.22.35-.19l.91.22c.14.03.27-.05.3-.19l1.28-5.76s0-.03,0-.05c.17.1.26.3.21.51Z" fill="#a36c36"/>
      <path d="M19.02,14.29c-.27-.83-1.07-1.54-2.46-1.94-.05-.02-.25-.16-.17-.43,0,0,.02.01.03.01,1.66.47,2.49,1.35,2.59,2.36Z" fill="#a36c36"/>
      <path d="M16.67,10.27l-.04.21s-.03-.01-.05-.02l-.67-.19c-.08-.02-.15.02-.17.1l-.35,1.49c-.02.07-.08.11-.15.1-.22-.04-.48-.09-.59-.12-.24-.05-.21-.34-.19-.39.17.04.34.08.5.12.06.01.12-.02.13-.08l.33-1.35.03-.14s0,0,0-.01c.04-.14.19-.23.33-.19l.68.15c.15.03.24.18.21.33Z" fill="#a36c36"/>
      <path d="M14.62,9.81l-.03.14s0,0,0,0l-.76-.17c-.06-.01-.12.02-.13.08l-.41,1.56c-.03.1-.12.16-.22.14-.76-.17-1.62-.36-1.93-.43-.21-.05-.42.09-.47.3l-.16.67-.18-.04c-.09-.02-.14-.11-.12-.2l.21-.89c.05-.21.26-.35.48-.3.41.09,1.12.24,1.94.43.06.01.12-.02.13-.08l.33-1.36.03-.13s.02-.05.03-.07c.06-.1.18-.16.3-.14l.75.17c.15.03.24.18.21.33Z" fill="#a36c36"/>
      <path d="M16.46,19.14c-.37,1.13-1.75,1-2.18.93-.31-.05-1.09-.21-1.47-.29-.12-.02-.2-.14-.17-.25l.02-.06c.39.09,1.14.25,1.45.3.43.07,1.82.21,2.19-1,.05-.16.06-.31.04-.45.16.22.23.49.12.82Z" fill="#a36c36"/>
      <path d="M16.71,15.07c-.08.47-.42.78-.83.95-.41.16-1.23.04-1.85-.08-.14-.03-.25-.05-.35-.07-.12-.02-.2-.14-.17-.25l.02-.09c.09.02.19.04.3.06.63.13,1.44.26,1.85.08.41-.17.75-.5.84-1.01.02-.11.02-.23,0-.36.19.26.23.53.19.75Z" fill="#a36c36"/>
    </g>
  </g>
  <g>
    <circle cx="8.5" cy="13.69" r=".17" fill="#eabf84"/>
    <circle cx="6.88" cy="15.73" r=".07" fill="#eabf84"/>
    <circle cx="10.24" cy="14.58" r=".06" fill="#eabf84"/>
    <circle cx="9.41" cy="16.85" r=".08" fill="#eabf84"/>
    <circle cx="7.45" cy="18.36" r=".17" fill="#eabf84"/>
    <circle cx="9.56" cy="21.93" r=".1" fill="#eabf84"/>
    <circle cx="12.09" cy="24.09" r=".06" fill="#eabf84"/>
    <circle cx="16" cy="23.69" r=".17" fill="#eabf84"/>
    <circle cx="17.07" cy="22.35" r=".06" fill="#eabf84"/>
    <circle cx="19.48" cy="21.33" r=".09" fill="#eabf84"/>
    <circle cx="21.18" cy="19.73" r=".18" fill="#eabf84"/>
    <circle cx="20" cy="18.29" r=".09" fill="#eabf84"/>
    <circle cx="21.21" cy="15.95" r=".17" fill="#eabf84"/>
    <circle cx="19.94" cy="13.64" r=".06" fill="#eabf84"/>
    <circle cx="17.9" cy="11.38" r=".13" fill="#eabf84"/>
    <circle cx="14.89" cy="14.5" r=".12" fill="#eabf84"/>
    <circle cx="13.89" cy="17.75" r=".05" fill="#eabf84"/>
    <circle cx="14.99" cy="18.78" r=".09" fill="#eabf84"/>
    <circle cx="16.29" cy="8.92" r=".04" fill="#eabf84"/>
    <circle cx="12.79" cy="8.8" r=".03" fill="#eabf84"/>
    <circle cx="12.52" cy="10.06" r=".06" fill="#eabf84"/>
    <circle cx="9.38" cy="10.22" r=".05" fill="#eabf84"/>
    <circle cx="7.96" cy="9.2" r=".03" fill="#eabf84"/>
    <circle cx="15.53" cy="6.81" r=".04" fill="#eabf84"/>
  </g>
  <path d="M28.26,7.4c-.43.33-2.69,1.95-3.56,2.61-.24.18-.47,0-.53-.08-.26-.32-.35-.47-.14-.73.59-.73,1.54-1.41,2.15-2.13.27-.32.53-.69.81-1,.2-.23.38-.35.67-.16.12.08.56.45.82.85.21.32-.07.53-.22.65Z" fill="#935f2c"/>
  <path d="M24.41,4.68c.08.08.11.26.02.39-.57.85-1.84,2.83-2.05,3.08-.14.16-.33.19-.49.12s-.24-.21-.34-.38c-.21-.36,1.08-3.35,1.1-3.42.18-.52.71-.64,1.09-.43.24.14.44.39.66.63Z" fill="#935f2c"/>
  <path d="M29.58,11.49c.06.19-.05.35-.31.41-1.15.3-2.73.76-2.93.78-.36.04-.54-.33-.57-.37-.07-.1,0-.35.03-.47.06-.21.57-.05.76-.16.54-.31,1.08-.63,1.62-.94.18-.1.17-.59.35-.65.09-.03.33-.05.4.09.1.19.56,1.03.65,1.3Z" fill="#935f2c"/>
  <path d="M27.09,14.55c1.08-.16,1.21.24,1.1.61-.07.24-.09.55-.37.63s-.46-.15-.64-.29-.46-.46-.58-.6.5-.35.5-.35Z" fill="#935f2c"/>
  <path d="M27.88,18.76c.44,0,.65.1.77.28s.08.4,0,.64c-.08.23-.4.81-.89.26s-.73-1.06-.73-1.07.85-.12.85-.12Z" fill="#935f2c"/>
  <path d="M26.15,21.71c.11-.18.35-.22.51-.07.31.29.51.61.58.77.09.21.26.48.09.7s-.44.25-.88.13-.62-.63-.63-.82c0-.11.18-.45.33-.71Z" fill="#935f2c"/>
  <path d="M27.92,6.91c-.33.28-.71.53-1.05.8-.86.67-1.66,1.3-2.52,1.95-.24.18-.46-.03-.52-.11-.26-.32-.06-.47.15-.72.59-.73,1.24-1.42,1.85-2.14.27-.32.53-.69.81-1,.2-.23.38-.35.67-.16.12.08.49.43.78.71.27.26-.03.54-.17.66Z" fill="#fde6b6"/>
  <path d="M23.99,4.21c.11.08.14.23.06.34-.62.85-1.8,2.96-2.02,3.21-.14.17-.33.2-.48.13s-.21-.22-.18-.38c.06-.43.91-3.52.94-3.59.17-.54.52-.37.91-.19.19.09.5.28.77.47Z" fill="#fde6b6"/>
  <path d="M29.27,11.12c.06.19-.05.35-.31.41-1.15.3-2.92.81-3.12.83-.1,0-.2-.13-.22-.16-.07-.1-.11-.26-.08-.38.06-.21.5-.39.69-.5.54-.31,1.08-.63,1.62-.94.18-.1.49-.33.67-.39.09-.03.23-.07.3.07.1.19.37.8.46,1.07Z" fill="#fde6b6"/>
  <path d="M27.18,14.42c.43-.05.97-.1.77.36s-.33.85-.74.55-.68-.36-.68-.6.29-.27.65-.31Z" fill="#fde6b6"/>
  <path d="M27.78,18.57c-.24-.01-.6-.12-.73.05-.09.12-.06.31.25.62s.29.45.56.49.71-.75.51-1.04c-.09-.13-.35-.11-.59-.12Z" fill="#fde6b6"/>
  <path d="M26.31,21.34c-.11,0-.25.13-.4.52s-.21.46-.15.63.34.22.58.28.53.1.65-.08.07-.43-.14-.76-.27-.59-.55-.58Z" fill="#fde6b6"/>
</svg>